#!OML:ASF X:\für Bonn\!DataBase\2005_08_12_Daniel\c3d\Daniel.ASF
:FULLY-SPECIFIED
:DEGREES
1569
root 27.2906 17.5984 -29.2542 -182.362 -13.2765 536.97
lowerback 9.03804 -0.984875 -1.17778
upperback 1.78177 -1.70682 -2.67195
thorax -3.26687 -0.926268 -1.90142
lowerneck 4.24591 8.20973 -1.00665
upperneck 11.8655 10.5701 -4.91227
head 3.35247 4.67429 -1.26894
rclavicle -3.72721e-014 -1.59028e-014
rhumerus -34.3869 -35.3341 -58.2635
rradius 10.6006
rwrist 49.5753
rhand -20.1294 15.7166
rfingers 7.12502
rthumb 6.21488 -14.1723
lclavicle -3.72721e-014 -1.59028e-014
lhumerus -30.523 34.104 66.9608
lradius 16.6422
lwrist -36.4657
lhand -15.7987 -5.67626
lfingers 7.12502
lthumb 10.3943 24.0468
rfemur -10.9465 20.3926 15.8244
rtibia 34.4494
rfoot -23.8302 -3.40874
rtoes -17.5256
lfemur -10.0109 1.8071 -23.0103
ltibia 48.247
lfoot -24.3015 16.4455
ltoes -7.21792
1570
root 27.347 17.5995 -29.2716 -182.071 -14.3076 536.838
lowerback 8.91784 -0.919108 -1.23707
upperback 1.80717 -1.61697 -2.64403
thorax -3.169 -0.879979 -1.85197
lowerneck 4.08735 8.22947 -1.08072
upperneck 11.8225 10.6168 -4.78432
head 3.35348 4.70971 -1.20786
rclavicle 5.66536e-015 8.34896e-015
rhumerus -34.1269 -34.8409 -58.3532
rradius 10.6503
rwrist 49.0284
rhand -20.2897 15.6602
rfingers 7.12502
rthumb 6.06012 -14.2331
lclavicle 5.66536e-015 8.34896e-015
lhumerus -30.5883 33.5998 66.8044
lradius 16.5952
lwrist -36.2032
lhand -15.8223 -5.51022
lfingers 7.12502
lthumb 10.3716 24.214
rfemur -11.0353 20.2091 15.9095
rtibia 34.6102
rfoot -24.1529 -4.23052
rtoes -17.4383
lfemur -10.2422 3.43812 -23.3147
ltibia 48.2194
lfoot -24.368 16.5766
ltoes -7.13114
1571
root 27.4012 17.602 -29.2894 -181.81 -15.3655 536.764
lowerback 8.80355 -0.851436 -1.22604
upperback 1.83315 -1.5185 -2.62793
thorax -3.07595 -0.830053 -1.85495
lowerneck 4.01275 8.21271 -0.948385
upperneck 11.7899 10.6195 -4.7633
head 3.36246 4.72791 -1.2193
rclavicle 1.86858e-014 -2.06736e-014
rhumerus -34.013 -34.5602 -58.3212
rradius 10.6782
rwrist 48.7837
rhand -20.5065 15.5042
rfingers 7.12502
rthumb 5.85081 -14.395
lclavicle 1.86858e-014 -2.06736e-014
lhumerus -30.624 33.2503 66.5643
lradius 16.4701
lwrist -36.0608
lhand -15.8052 -5.43727
lfingers 7.12502
lthumb 10.3881 24.2861
rfemur -11.0849 19.9956 16.0758
rtibia 34.7818
rfoot -24.4976 -5.09369
rtoes -17.4725
lfemur -10.4471 4.9624 -23.5398
ltibia 48.2174
lfoot -24.4971 16.5136
ltoes -6.67218
1572
root 27.4505 17.6027 -29.3088 -181.512 -16.4698 536.64
lowerback 8.6996 -0.813467 -1.27267
upperback 1.809 -1.46231 -2.58786
thorax -3.03962 -0.799062 -1.79502
lowerneck 3.97071 8.21451 -0.871306
upperneck 11.7671 10.6403 -4.74125
head 3.36596 4.75068 -1.22235
rclavicle 9.0944e-015 9.14409e-015
rhumerus -34.1171 -34.7054 -57.8748
rradius 10.6486
rwrist 49.2882
rhand -20.8098 15.5266
rfingers 7.12502
rthumb 5.55803 -14.3805
lclavicle 9.0944e-015 9.14409e-015
lhumerus -30.9391 33.496 66.0778
lradius 16.3322
lwrist -36.4554
lhand -15.8816 -5.55771
lfingers 7.12502
lthumb 10.3144 24.1694
rfemur -11.1696 19.619 16.1436
rtibia 34.9419
rfoot -24.8034 -5.84931
rtoes -17.4299
lfemur -10.6617 6.45736 -23.8236
ltibia 48.2397
lfoot -24.6917 16.265
ltoes -5.97167
1573
root 27.5031 17.6022 -29.3298 -181.199 -17.6902 536.493
lowerback 8.55614 -0.793254 -1.38177
upperback 1.81988 -1.43473 -2.54348
thorax -2.94426 -0.782686 -1.69305
lowerneck 3.88171 8.19971 -0.848413
upperneck 11.7549 10.6384 -4.68179
head 3.37489 4.76071 -1.20287
rclavicle -4.64659e-015 -4.33351e-014
rhumerus -34.1473 -34.6547 -57.6384
rradius 10.7317
rwrist 49.4288
rhand -20.9823 15.3805
rfingers 7.12502
rthumb 5.39143 -14.5309
lclavicle -4.64659e-015 -4.33351e-014
lhumerus -31.2365 34.0966 65.4866
lradius 16.1938
lwrist -37.1159
lhand -15.8489 -5.67166
lfingers 7.12502
lthumb 10.3459 24.0538
rfemur -11.202 19.4055 16.2459
rtibia 35.1076
rfoot -25.2239 -6.81077
rtoes -17.4224
lfemur -10.89 7.86221 -24.1067
ltibia 48.2841
lfoot -24.9297 15.9591
ltoes -5.65522
1574
root 27.5537 17.6013 -29.3537 -180.904 -18.9318 536.375
lowerback 8.39545 -0.781517 -1.45303
upperback 1.84455 -1.41605 -2.52403
thorax -2.82687 -0.771849 -1.63756
lowerneck 3.74581 8.16856 -0.647839
upperneck 11.7864 10.6283 -4.72095
head 3.42584 4.76862 -1.24196
rclavicle 3.10601e-014 -1.59028e-015
rhumerus -34.4857 -35.3424 -56.9958
rradius 10.8093
rwrist 50.4008
rhand -21.2116 15.4391
rfingers 7.12502
rthumb 5.17009 -14.4778
lclavicle 3.10601e-014 -1.59028e-015
lhumerus -31.5138 34.6768 64.8712
lradius 16.0829
lwrist -37.7189
lhand -15.8839 -5.80711
lfingers 7.12502
lthumb 10.3122 23.9201
rfemur -11.2333 19.1071 16.3851
rtibia 35.291
rfoot -25.6456 -7.7359
rtoes -17.3738
lfemur -11.0897 9.25847 -24.345
ltibia 48.3351
lfoot -25.162 15.6379
ltoes -5.14841
1575
root 27.6038 17.6001 -29.3776 -180.59 -20.2561 536.253
lowerback 8.26353 -0.784436 -1.55847
upperback 1.81951 -1.4166 -2.4627
thorax -2.7754 -0.768402 -1.51666
lowerneck 3.75445 8.13738 -0.557325
upperneck 11.7403 10.6016 -4.72103
head 3.41306 4.76832 -1.25793
rclavicle -2.77056e-014 -1.27222e-014
rhumerus -34.8494 -35.9027 -56.2982
rradius 10.8273
rwrist 51.3145
rhand -21.4722 15.4251
rfingers 7.12502
rthumb 4.91839 -14.4978
lclavicle -2.77056e-014 -1.27222e-014
lhumerus -31.8742 35.251 64.2752
lradius 16.0015
lwrist -38.188
lhand -15.9441 -5.92617
lfingers 7.12502
lthumb 10.2541 23.8039
rfemur -11.2746 18.7266 16.5185
rtibia 35.4898
rfoot -26.0411 -8.63583
rtoes -17.3537
lfemur -11.3165 10.6099 -24.5908
ltibia 48.4055
lfoot -25.2604 15.3017
ltoes -4.89116
1576
root 27.653 17.5972 -29.4012 -180.313 -21.6651 536.144
lowerback 8.16746 -0.841104 -1.65302
upperback 1.82088 -1.48976 -2.40282
thorax -2.71777 -0.802028 -1.39557
lowerneck 3.71234 8.11142 -0.464506
upperneck 11.7112 10.5848 -4.72039
head 3.41584 4.77179 -1.27152
rclavicle -1.44864e-014 2.10712e-014
rhumerus -35.3854 -37.1106 -55.2339
rradius 10.7603
rwrist 52.9935
rhand -21.6798 15.547
rfingers 7.12502
rthumb 4.71793 -14.3804
lclavicle -1.44864e-014 2.10712e-014
lhumerus -32.2734 36.1728 63.5116
lradius 15.8528
lwrist -38.8864
lhand -16.0351 -6.08308
lfingers 7.12502
lthumb 10.1662 23.6513
rfemur -11.2846 18.2686 16.6682
rtibia 35.6995
rfoot -26.4622 -9.49646
rtoes -17.097
lfemur -11.5297 11.8918 -24.8127
ltibia 48.4889
lfoot -25.3078 14.9163
ltoes -4.78229
1577
root 27.7019 17.5936 -29.4234 -180.005 -23.0663 535.998
lowerback 8.09011 -0.867807 -1.7766
upperback 1.80667 -1.52649 -2.34567
thorax -2.68521 -0.817253 -1.26458
lowerneck 3.65131 8.04919 -0.369938
upperneck 11.7176 10.5226 -4.7715
head 3.43695 4.74824 -1.30219
rclavicle -4.94725e-014 1.70955e-014
rhumerus -35.6403 -37.5055 -54.7163
rradius 10.7562
rwrist 53.5742
rhand -21.808 15.6002
rfingers 7.12502
rthumb 4.59417 -14.3299
lclavicle -4.94725e-014 1.70955e-014
lhumerus -32.6787 37.1019 62.7549
lradius 15.7263
lwrist -39.5697
lhand -16.15 -6.21287
lfingers 7.12502
lthumb 10.0554 23.5269
rfemur -11.3452 17.6982 16.7752
rtibia 35.9376
rfoot -26.8473 -10.3111
rtoes -16.9554
lfemur -11.7643 13.1386 -25.0651
ltibia 48.58
lfoot -25.409 14.5079
ltoes -4.37279
